<?xml version="1.0" encoding="UTF-8"?><svg id="a" xmlns="http://www.w3.org/2000/svg" viewBox="0 0 800 600.7"><path d="M307.11,278.35c-7.33,6.39-13.29,13.94-18.52,22.24,5.12-3.9,10.24-7.81,15.66-11.93,3.55,5.14,6.84,10.13,10.39,14.92,1.42,1.92,1.59,3.54,.88,5.76-1.84,5.75-3.4,11.59-4.67,17.57,1.36-2.7,2.71-5.41,4.07-8.11,1.7-3.37,3.26-6.81,5.16-10.06,1.1-1.87,1.01-3.32-.13-5.05-1.31-1.98-2.42-4.09-3.81-6.49,6.57-2.31,12.92-4.55,19.53-6.89,3.05,4.08,6.21,8.33,9.37,12.57l.27-.14c-1.04-3.59-2.03-7.19-3.16-10.75-.5-1.57-.17-2.45,1.3-3.28,2.89-1.63,5.56-3.65,8.51-5.15,1.41-.72,3.24-.86,4.87-.83,2.19,.04,4.37,.5,7.13,.86v16.9l.98,.1c1.05-4.31,2.38-8.57,3.07-12.94,.49-3.07,1.54-4.88,4.73-5.7,2.81-.72,5.43-2.21,8.38-3.47,3.68,5.84,7.39,11.73,11.1,17.62l.36-.12c-1.88-6.06-3.76-12.12-5.76-18.55,6.06-2.33,12.03-4.63,18.39-7.07,1.53,3.57,2.78,7.1,4.53,10.37,1.58,2.97,1.5,5.4-.74,7.91-4.11,4.59-3.87,10.5-4.59,16.15,2.85-4.69,5.75-9.35,8.53-14.08,1.86-3.17,4.19-5.81,7.38-7.67,5.7-3.33,11.4-6.66,16.94-9.9,3.01,9.06,6.02,17.44,8.57,25.96,3.86,12.9,.84,24.23-8.74,33.7-1.78,1.75-2.46,3.61-2.48,6.1-.1,11.71-2.36,23.07-6.12,34.13-5.58,16.43-7.56,33.21-5,50.43,.84,5.69,0,11.02-1.7,16.55-1.47,4.74-1.97,9.98-1.85,14.98,.34,14.31,1.25,28.61,1.85,42.92,.35,8.36,3.56,15.77,7.49,22.9,2.53,4.59,5.58,8.9,8.4,13.32,.53,.83,1.09,1.64,1.95,2.95-2.27,.55-4.09,1.33-5.93,1.38-4.43,.11-8.87,.04-13.29-.26-3.75-.25-5.74-4.27-4.05-7.7,.2-.41,.43-.82,.67-1.21,2.77-4.66,3.01-5.25-.92-9.04-3.61-3.48-4.83-6.97-4.33-12.08,1.7-17.26,.17-34.52-1.05-51.75-.58-8.18-1.44-16.34-6.43-23.41-1.67-2.37-1.28-5.28-.38-8.01,2.18-6.58,2.77-13.3,1.7-20.8-2.42,5.25-4.33,10.13-4.16,15.41,.15,4.66-.89,8.81-2.81,13.03-3.98,8.79-5.75,18.24-7.25,27.7-1.72,10.83-3.37,21.67-4.81,32.53-1.42,10.64-1.91,21.23,4.63,30.69,2.46,3.57,4.99,7.09,7.58,10.57,1.46,1.96,.83,3.33-1.29,3.46-5.68,.34-11.38,.51-17.07,.38-2.08-.05-4-4.87-3.3-7.4,.1-.35,.2-.74,.41-1.02,3.63-4.71,2.15-8.76-1.67-12.43-2.32-2.23-2.06-4.82-1.63-7.67,2.09-13.84,4.27-27.67,5.99-41.56,1.27-10.23,2-20.53,2.73-30.82,.19-2.62-.4-5.32-.82-7.96-.87-5.57-.37-10.96,2.72-15.72,4.21-6.49,6.08-13.77,6.35-21.2,.54-14.57,.25-29.18,.3-43.77,0-.35-.13-.71-.25-1.32-4.99,1.84-9.86,3.7-14.77,5.44-8.48,2.99-17.03,4.13-25.53,.17-2.64-1.23-5.07-2.91-7.51-4.34-2.27,4.4-4.27,9.19-7.05,13.46-4.12,6.32-8.86,12.24-13.21,18.42-.85,1.21-1.28,2.76-1.7,4.21-1.97,6.89-3.81,13.81-5.8,20.69-3.26,11.31-6.84,22.53-9.79,33.92-1.16,4.49-1.38,9.32-1.4,14-.05,14.97,.05,29.94,.39,44.91,.22,9.76,4.11,18.45,9.14,26.62,2.56,4.15,5.46,8.1,8.52,12.62-1.79,.44-3.56,1.23-5.34,1.25-4.7,.06-9.41-.11-14.11-.38-3.01-.18-5.19-3.54-4.44-6.53,.15-.62,.43-1.22,.73-1.78,2.9-5.48,3.12-6.51-1.44-10.47-3.59-3.12-3.69-6.45-3.07-10.54,.59-3.91,.99-7.91,.9-11.86-.39-16.81-.79-33.63-1.66-50.42-.24-4.68-1.92-9.32-3.24-13.89-.48-1.67-1.85-3.07-2.98-4.85-3.75,4.28-6.28,8.79-7.43,13.82-2.43,10.58-4.71,21.2-6.64,31.87-1.5,8.33-2.3,16.79-3.55,25.17-1.96,13.17,1.38,24.85,9.59,35.23,.61,.77,1.14,1.61,2.23,3.16-3.04,.56-5.48,1.24-7.95,1.4-3.31,.22-6.66,.2-9.97,0-3.93-.24-6.88-4.4-4.93-7.76,3.34-5.76,2.46-10.52-1.36-15.48-.77-1-.73-3.07-.35-4.46,5.22-19.18,7.36-38.88,10.02-58.48,1.5-11.05,1.05-22.08-1.73-32.97-1.25-4.9-.13-9.38,2.92-13.54,9.33-12.72,14.1-27.05,14.25-42.81,.07-7.29-2.58-14.07-4.67-20.94-2.85-9.36-4.61-18.91-4.54-29.41-3.25,4.01-4.75,8.1-5.48,12.4-2.16,12.72-4.12,25.47-6.19,38.2-.93,5.72-1.8,11.47-2.97,17.14-1.36,6.55-1.22,13.02,.43,19.45,.99,3.85,.99,7.6-.15,11.44-2.35,7.92-4.53,15.9-7.23,23.84-.98-9.72-2.2-19.42-2.81-29.16-.2-3.15,.67-6.66,2-9.57,4.84-10.59,6.64-21.78,7.41-33.22,.96-14.37,1.65-28.76,2.87-43.11,.27-3.22,1.77-6.62,3.54-9.4,12.81-20.05,29.95-35.23,52.1-44.22,17.39-7.05,33.76-15.97,49.75-25.67,3.91-2.37,6.97-5.5,8.71-9.73,1.89-4.59,3.77-9.2,5.27-13.93,1.71-5.43,5.22-8.48,10.71-9.5,2.26-.42,4.49-1.03,6.76-1.36,7.54-1.11,13.02-5.63,18.33-10.63,18.11-17.04,32.09-37,42.8-59.38,2.45-5.13,6.53-9.59,8.33-14.88,1.67-4.89,5.77-7.71,7.84-12.65-.91,.71-1.57,1.18-2.18,1.7-.68,.59-1.31,1.24-2.44,1.42,1.85-2.02,3.71-4.04,5.64-6.15l-1.29-.15c1.79-1.44,3.47-2.78,5.78-4.63l-3.93,.6c2.01-1.27,3.63-2.3,5.5-3.48l-1.67-.5c1.46-.72,2.96-1.46,5.1-2.52-9.58-1.92-10.89-10.16-15.35-16.46,7.48-.06,14.61-1.49,20.13,4.49,1.14,1.23,2.65,1.75,3.92,.65,1.05-.91,2.24-2.4,2.24-3.64,0-4.81-.44-9.56-5.05-12.71-.68-.46-.86-2.36-.57-3.39,.6-2.07,2.35-3.2,4.49-2.77,1.04,.21,2.36,1.17,2.71,2.11,.7,1.86,.46,4.11,1.26,5.9,1.37,3.06,3.05,6.04,5,8.77,1.2,1.68,3.07,1.13,3.02-.79-.11-4.21-.49-8.51-3.85-11.67-1.25-1.18-2.99-2.36-1.63-4.03,1.01-1.24,3.06-2.4,4.53-2.27,1.22,.1,3.28,2.18,3.23,3.31-.32,7.3,3.84,12.5,7.64,17.94,1.14,1.64,2.32,2.17,4.4,1.52,4.27-1.34,7.82,.84,8.09,5.28,.48,8.07,4.99,13.13,11.38,17.21,2.62,1.68,5.53,3.45,7.22,5.91,2.45,3.56,4.07,7.73,5.75,11.77,.76,1.83-.51,3.35-2.31,3.75-4.72,1.04-9.33,.23-13.8-1.43-.5-.18-1.02-.56-1.31-.99-2.94-4.43-7.28-4.4-11.85-3.87-4.76,.55-9.52,1.25-14.3,1.41-6.12,.21-9.5-2.34-11.81-8.06-1.54-3.81-3.21-7.57-4.67-11.41-.31-.82,.03-1.9,.08-2.98-.87-.4-1.91-.89-3.33-1.55-.51,1.1-1.08,2.18-1.54,3.31-5.34,12.98-10.01,26.29-16.15,38.89-10.55,21.64-23.7,41.78-38.07,61.11-4.92,6.62-11.47,10.71-19.19,13.34-6.15,2.1-12.16,4.62-17.38,6.63-.86,4.95-1.53,9.32-2.39,13.66-.8,4.06-1.89,8.06-2.66,12.13-.31,1.6-1.03,2.13-2.56,2.22-2.49,.15-4.97,.69-7.44,.64-2.57-.05-4.37,.95-5.85,2.87-5.99,7.81-15.01,9.66-23.77,11.64-11.29,2.56-22.71,4.51-34.05,6.81-5.48,1.11-10.17,3.68-13.58,8.26l.09-.09Z"/><path d="M477.07,202.53c-6.7-6.28-3.73-13.05-2.79-19.89,3.1-.34,6.24-.67,9.38-1.01l.13-.65c-2.16-1.15-4.24-2.47-6.5-3.39-1.9-.78-2.42-1.92-2.14-3.82,.69-4.73,1.29-9.47,1.97-14.45,4.19-.3,8.34-.59,12.5-.89l.19-.51c-2.07-1.26-4.11-2.59-6.24-3.77-1.28-.71-1.9-1.26-1.32-2.98,1.43-4.25,2.52-8.61,3.78-13.06,2.01,.5,3.85,.96,5.98,1.48-.14-.47-.14-.86-.33-1.06-3.01-3-2.18-5.89-.02-8.98,1.89-2.7,3.45-5.62,5.22-8.53,2.86,3.37,3.14,6.7,2.25,10.74-4.93,22.5-10.98,44.65-19.45,66.11-6.8,17.24-15.89,33.18-26.77,48.14-5.58,7.68-11.02,15.44-14.34,24.46-2.12-1.45-4.12-2.75-6.03-4.16-.71-.52-1.5-1.21-1.79-1.99-2.12-5.65-4.11-11.35-6.15-17.05,8.81-5.66,17.32-11.16,25.89-16.55,.67-.42,1.9-.26,2.75,0,1.46,.44,2.83,1.18,4.54,1.43-1.8-2.21-3.61-4.41-5.41-6.62,.13-.31,.17-.66,.35-.8,4.99-3.75,6.77-8.96,7.06-14.96,.05-.98,.67-2.11,1.37-2.86,2.06-2.24,3.95-5.34,6.54-6.19,2.36-.78,5.55,.94,9.39,1.79Z"/><path d="M444.65,227.65c-7.35,6.08-14.49,11.98-22.1,18.27-5.59-7.05-11.03-13.91-16.73-21.11,5.16-2.51,9.6-4.66,14.02-6.84,4.03-1.99,8.01-4.09,12.09-5.98,.72-.33,2.31-.16,2.66,.35,3.38,4.91,6.57,9.95,10.06,15.31Z"/><path d="M403.15,230.27c3.5,1.49,5.93,3.78,7.81,6.94,3.35,5.6,7.04,11.01,10.86,16.93-5.23,3.18-10.36,6.29-15.7,9.53-3.32-4.11-6.62-8.07-9.74-12.16-.49-.64-.58-1.98-.28-2.78,2.24-6.11,4.62-12.18,7.04-18.46Z"/><path d="M460.18,202.27c-3.87-3.73-7.71-7.44-11.6-11.19,2.92-5.57,5.73-10.92,8.74-16.66,4.05,2,8.06,3.94,12.02,6,.42,.22,.66,1.04,.73,1.61,.09,.72-.24,1.5-.12,2.2,1.45,8.49-3.58,13.53-9.77,18.05Z"/><path d="M337.93,285.57c-4.22-4.8-8.4-9.55-12.96-14.74,8.55-.84,16.47-1.65,24.4-2.34,.78-.07,1.87,.31,2.38,.87,2.41,2.66,4.66,5.45,6.91,8.13-6.94,2.71-13.73,5.35-20.73,8.08Z"/><path d="M402.62,267.04c-6.73,2.19-13.03,4.25-19.62,6.39-2.21-4.9-4.39-9.72-6.54-14.47,3.77-3.99,8.33-5.77,13.6-5.8,.49,0,1.14,.19,1.43,.54,3.67,4.34,7.29,8.73,11.12,13.34Z"/><path d="M307.01,278.45c1.41-1.1,2.83-2.17,4.22-3.29,3.65-2.93,5.67-3.14,9.31-.27,4.24,3.34,8.27,6.96,13.03,11l-19.82,6.06c-3.32-3.08-6.35-5.88-9.57-8.87,1-1.61,1.96-3.17,2.93-4.73l-.09,.09Z"/><path d="M450.34,223.38c-3.88-4.52-7.45-8.61-10.91-12.78-.4-.49-.55-1.6-.28-2.17,1.92-4.05,3.97-8.03,6.17-12.41,3.45,2.32,6.72,4.46,9.92,6.73,.43,.31,.72,1.27,.6,1.83-1,4.86-2.03,9.71-3.24,14.52-.34,1.37-1.33,2.57-2.26,4.28Z"/><path d="M408.37,268.04c4.96-3.69,9.74-7.25,14.83-11.04,1.25,3.22,2.47,6.14,3.45,9.14,.2,.63-.32,1.71-.82,2.32-3.38,4.02-6.85,7.96-10.54,12.22-2.28-4.17-4.53-8.29-6.91-12.63Z"/><path d="M378.66,274.93c-3.04,1.32-5.69,2.57-8.42,3.6-.66,.25-1.84,.09-2.34-.37-3.53-3.21-6.94-6.55-10.57-10.02,4.8-2.1,9.5-4.17,14.4-6.31,2.31,4.37,4.58,8.66,6.93,13.1Z"/><path d="M459.78,171.37c2.59-5.55,5.09-10.92,7.47-16.01,.42-.21,.51-.3,.58-.29q6.42,1.7,5.62,8.1c-.25,1.92-.64,3.81-.92,5.73-.28,1.9-.51,3.81-.8,6.08-4.05-1.22-7.87-2.38-11.93-3.6Z"/><path d="M476.7,153.03c-.46-.25-.56-.28-.62-.34q-5.11-5.32-1.83-11.9c1.38-2.77,2.74-5.55,4.13-8.35,.51,.2,.78,.25,.98,.4,4.69,3.58,4.73,3.6,2.35,9.13-1.59,3.7-3.32,7.34-5.01,11.07Z"/><path d="M485.6,133.32c-1.97-2.08-4.6-3.65-5.08-5.71-.43-1.89,1.47-4.32,2.34-6.51,.61-1.53,1.21-3.05,1.99-5.02,2.6,2.18,4.99,4.19,7.51,6.3-2.25,3.64-4.35,7.04-6.76,10.94Z"/><path d="M492.76,104.68c.76,3.6,1.51,7.19,2.27,10.79l-.93,.78c-2.23-.94-4.45-1.87-6.81-2.86,1.66-3.1,3.12-5.82,4.58-8.55l.89-.16Z"/></svg>