<?xml version="1.0" encoding="UTF-8"?><svg id="a" xmlns="http://www.w3.org/2000/svg" viewBox="0 0 800 600.7"><path d="M278.42,308.01c-9.67-7.96-18.89-9.66-26.14-4.83,3.27,.5,6.49,.81,9.61,1.51,9.91,2.21,17.07,9.69,17.94,19.55,.32,3.61-.53,7.57-1.78,11.03-3.48,9.64-9.17,18.11-14.97,26.49-.6,.86-1.18,1.74-2.04,3.01,12.95-1.59,22.8-8.08,32.1-16.15-2.98,5.81-5.95,11.62-9.24,18.04,15.98-5.22,31.87-8.08,48.22-9.12-.69,.24-1.38,.49-2.07,.71-14.64,4.65-29.27,9.35-43.94,13.92-3.7,1.15-6.06,3.15-7.99,6.74-6.08,11.3-15.58,18.74-28.18,21.52-6.96,1.54-13.92-.03-20.59-2.23-4.9-1.61-9.64-3.07-14.96-2.22-2.59,.41-5.44-.11-8.07-.7-7.38-1.67-12.58-8.11-13.53-16.03-.84-7.02,.72-13.68,2.61-20.32,.77-2.69,1.52-5.44,2.7-7.96,1.95-4.13,3.01-8.03,.91-12.57-.72-1.55-.11-4.11,.65-5.88,2.64-6.13,5.57-12.13,8.5-18.12,.35-.73,1.35-1.52,2.12-1.6,7.27-.72,11.63-5.16,14.88-11.2,4.96-9.21,9.89-18.44,15.05-27.54,2.38-4.21,5.36-8.08,7.92-12.19,2.26-3.64,1.97-4.15-2.07-5.2-1.2-.31-2.37-.77-3.7-1.44,5.36-.64,9.14-3.06,10.68-8.95-1.47,1.27-2.45,2.35-3.64,3.11-2.76,1.74-4.47,1.65-6.16-1.12-3.16-5.15-5.88-10.57-8.95-16.18-6.33,1.7-13.22,1.7-19.43-2.59,4.06-.23,8.14-.45,12.22-.68l-.06-.8-8.34-1.17,.07-.41c4.65-.54,9.31-1.08,14.96-1.74-7.93-7.72-5.3-14.94-1.37-21.89-19.29-13.45-32.49-31.97-44.75-51.24-2.07-3.26-3.28-7.2-4.25-10.99-.9-3.56,.77-6.02,4.3-7.19,2.09-.69,4.33-1.1,6.52-1.24,29.97-1.87,55.93,8.09,78.86,26.88,.29,.24,.62,.42,1.41,.95,1.63-2.72,3.45-5.23,4.72-7.99,7.22-15.65,14.31-31.35,21.45-47.04,1.36-3,2.59-6.07,4.15-8.95,4.24-7.81,6.49-15.98,6.41-24.98-.05-6.24,2.22-12.15,5.42-17.58,.63-1.07,1.49-2.03,2.35-2.94,.16-.17,.83,.15,1.42,.28,.82-.97,1.86-2.21,3.47-4.13-.24,1.74-.35,2.58-.54,3.98,1.6-2.3,2.88-4.13,4.6-6.59,.22,1.75,.34,2.73,.56,4.47,1.64-2.94,2.98-5.36,4.62-8.29,.8,2.77,1.44,5,2.18,7.58,1.4-1.7,2.6-3.15,4.08-4.94,.38,2.26,.69,4.1,1.13,6.72,1.41-2.95,2.54-5.31,3.86-8.06,1.09,2.95,2.07,5.62,3.19,8.68,1.24-2.37,2.3-4.4,3.61-6.92,1.2,2.95,2.22,5.47,3.4,8.37,.66-1.49,1.19-2.67,1.71-3.85l.65-.14c.65,2.74,1.67,5.45,1.86,8.22,.22,3.27-.16,6.6-.58,9.86-.12,.94-1.14,1.93-2,2.59-8.88,6.85-16.25,14.83-18.43,26.28-.66,3.47-.85,7.25-.2,10.69,1.39,7.39,5.97,10.24,15.61,8.33,5.19-1.03,8.53-4.85,11.09-9.22,6.71-11.5,8.2-23.87,5.64-36.78-1.46-7.33,.71-13.91,3.65-21.16,.31,.92,.42,1.19,.48,1.46,.08,.35,.12,.72,.23,1.41,1.31-2.48,2.47-4.66,3.99-7.53,.27,1.47,.38,2.11,.53,2.93,1.68-2.28,3.21-4.35,5.17-7v3.27c1.88-2.15,3.35-3.83,5.08-5.81l1.36,6.3c1.85-2.67,3.38-4.89,5.3-7.65,.26,3.37,.47,6.04,.67,8.71l.57,.28,3.69-7.31c.9,3.03,1.68,5.64,2.65,8.93,.59-1.92,1.01-3.26,1.63-5.29,1.13,2.88,2.05,5.22,3.18,8.1l.58-2.86,.9-.12c.56,3.36,1.33,6.7,1.6,10.09,.19,2.39-.26,4.84-.53,7.25-.1,.83-.32,1.84-.86,2.39-6.07,6.19-8.45,14.07-9.85,22.24-2.14,12.47-2.69,25.06-1.44,37.69,.83,8.45,5.18,15.32,11.01,20.93,4.83,4.65,10.71,8.21,16.14,12.24,.37,.27,.78,.49,1.18,1.01-7.36-.57-15.52-4.77-20.66,5.47-.64-5.73-1.12-10.62-1.79-15.48-.19-1.4-.7-2.84-1.41-4.07-1.39-2.39-3.63-2.84-6.77-1.07-1.5-7.35-2.96-14.46-4.41-21.57-.55-2.71-.56-5.69-1.77-8.07-1.89-3.71-5.51-3.45-7.19,.4-1.45,3.35-2.33,6.95-3.47,10.44-.11,.33-.25,.64-.56,1.43-.93-2.9-1.71-5.36-2.78-8.7-1.57,1.79-2.8,2.76-3.45,4.02-5.59,10.91-15.38,14.76-26.7,15.77-2.81,.25-3.61,1.05-3.53,3.74,.29,9.45,5.25,15.88,13.19,20.1,3.63,1.93,7.74,2.98,11.68,4.25,5.17,1.66,9.67,4.16,12.96,9.25-12.77-.17-23.65,4.07-33.49,11.4,.44-.13,.9-.22,1.32-.4,.53-.22,1.03-.53,1.56-.76,8.98-3.97,18.27-6.35,28.2-5.65,8.36,.59,14.64,4.62,19.21,11.47,1.47,2.21,2.66,4.61,4.39,7.64-2.83-2.41-4.85-4.36-7.1-5.98-3.66-2.64-7.89-3.6-12.16-2.13-12.5,4.3-23.8,10.73-33.37,19.97-.58,.56-1.02,1.27-1.4,2.04,7.96-5.9,17.14-8.59,26.72-10.32-2.08,1-4.19,1.93-6.23,3.01-2.02,1.08-3.95,2.31-5.7,3.8,8.18-1.72,16.36-3.44,24.55-5.15l.13,.54c-.21,.19-.4,.47-.65,.55-13.05,4.2-24.45,11.62-36.11,18.51-7.69,4.55-15.59,8.6-24.39,10.6-.25,.06-.52,.05-1.04,.1,1.39-10.61,4.1-20.63,9.8-30.13-3.6,.63-5.79,2.62-7.73,4.91-4.8,5.66-7.28,12.5-9.67,19.38-.31,.9-.58,1.8-1.01,3.14-1.13-3.73-1.86-7.17-3.22-10.33-1.63-3.79-3.37-7.67-5.85-10.92-3.57-4.67-7.86-5.04-12.38-1.25-3.31,2.78-6.54,5.92-8.96,9.47-13.96,20.51-27.9,41.04-41.35,61.89-6.14,9.52-10.6,20.01-13.25,31.13-.4,1.68-.6,3.42-.28,5.57,2.7-3.04,5.44-6.05,8.11-9.12,7-8.06,13.63-16.49,22.44-22.74,6.14-4.36,12.62-8.04,20.43-8.24,4.62-.12,4.92,.32,5,4.84,.17,8.81-1.38,17.17-6.36,24.64-.58,.87-1.28,1.66-1.92,2.49Zm-55-142.97c-6.17-1.51-11.67-2.85-17.35-4.24-.19,4.66,1.13,8.73,3.42,12.51,6.38,10.53,15.5,18.57,24.41,27.08,1.38-1.59,2.6-3.01,3.64-4.21-3.59-3.09-7.04-5.9-10.26-8.96-.82-.78-1.52-2.6-1.16-3.49,.37-.92,2.04-1.5,3.25-1.85,.86-.25,1.9,.13,2.87,.2,2.42,.15,4.84,.28,7.26,.42l.17-.84c-.78-.49-1.59-.95-2.35-1.48-1.94-1.36-3.31-3.05-2.8-5.61,.89-4.49-.91-7.9-4.11-10.86-4.07-3.75-8.07-7.58-12.08-11.39-.78-.74-1.5-1.53-2.25-2.3l.42-1.19c8.6,.46,17.2,.75,25.78,1.45,4.75,.38,9.21,4.91,10.06,9.43-1.28,.32-2.56,.64-4.26,1.07l6.29,2.34c-1.68,.66-2.72,1.07-4.21,1.66,1.15,.56,1.87,.93,2.61,1.28,.83,.4,1.66,.78,2.77,1.3-1.24,1.14-2.23,2.06-3.41,3.14,1.67,.59,2.98,1.06,4.38,1.55l-.87,2.52q4.98,1.96,8.14-1.7c.89-1.03,1.64-2.18,2.59-3.14,1.11-1.11,1.03-2.07,.14-3.27-3.11-4.21-6.03-8.57-9.28-12.66-3.53-4.44-8.16-7.35-13.74-8.68-9.67-2.31-19.41-2.3-29.19-1-2.5,.33-4.97,.9-8.3,1.52,6.02,6.71,11.44,12.75,17.42,19.41Zm13.35,177.03c7.1-3.2,14.07-6.27,20.96-9.53,1.71-.81,3.29-2.09,4.64-3.43,3.61-3.58,4.33-9.12,1.94-13.38-1.62-2.89-4.09-3.94-7.32-3.09-12.46,3.26-20.99,15.45-20.22,29.43Zm89.78-152.53c3.11-16.19-10.46-34.09-35.88-29.21,.11,.15,.18,.38,.32,.44,.44,.19,.91,.3,1.36,.48,6.43,2.57,13.13,4.62,19.21,7.85,7.88,4.18,13.57,10.55,14.98,20.44Zm-2.92-80.74c4.16,6.63,8.97,8.18,12.21,3.77-4.18-1.06-5.11-4.35-5.37-7.97-.16-2.22,.05-4.46-.16-6.67-.13-1.41-.71-2.78-1.11-4.23-4.51,1.94-12.02,10.6-13.19,14.82-.08,.28-.23,.58-.18,.84,.18,.91,.17,2.15,.74,2.59,.51,.39,1.83,.12,2.58-.27,1.53-.79,2.91-1.86,4.47-2.89Zm-1.6,82.15c-2.26-12.76-15.6-23.29-26.92-21.1,10.25,5.58,18.97,12.66,26.92,21.1Zm-63.9,51.85c6.03-7.85,10.48-25.42,7.92-32.61-2.83,2.99-4.42,6.5-5,10.35-1.14,7.53-1.99,15.1-2.91,22.25Zm-49.92,100.5l.71-.47c.93-5.18,1.94-10.34,2.71-15.54,.16-1.12-.57-2.37-.89-3.57-1.27,.42-3.05,.47-3.71,1.35-1.82,2.45-3.28,5.19-4.64,7.93-.41,.83-.43,2.32,.07,3.03,1.76,2.53,3.81,4.86,5.76,7.26Zm24.98-131.91c.58,3.94,9.37,11.35,15.47,12.67-5.44-4.45-10.42-8.52-15.47-12.67Zm16.85,22.48l.47-1c-1.49-1.43-2.83-3.09-4.52-4.22-1.58-1.06-3.45-.47-4.02,1.34-.23,.73,.98,2.53,1.89,2.85,1.94,.68,4.11,.72,6.19,1.03Z"/><path d="M417.25,204.53c-2.18,1.38-4.32,2.73-6.79,4.3-1.21-2.62-2.16-4.7-3.11-6.75,9.64-7.69,8.73-17.66,6.13-28.52,3.91,5.82,5.19,11.91,6.04,18.17,.7,5.17,1.09,10.44,2.39,15.47,2.28,8.76,11.74,12.17,19.47,7.41,4.01-2.47,4.65-6.66,5.47-10.76,.18-.92,.35-1.83,.57-2.97,12.43,2.69,22.72-1.48,32.16-8.79,14.25-11.03,26.14-24,33.46-40.7,2.34-5.33,3.94-10.89,3.79-17.03-5.12,2.93-10.02,5.73-14.93,8.53l-.47-.53c2.27-2.77,4.6-5.49,6.78-8.32,3.02-3.91,6.1-7.79,8.81-11.91,1.87-2.84,3.49-6.31,1.41-9.53-2.13-3.31-6.06-2.95-9.33-2.34-11.5,2.12-22.96,4.46-34.38,6.96-5.82,1.28-9.94,5.07-12.67,10.32-1.2,2.32-2.43,4.64-3.33,7.09-2.02,5.52-4.99,10.36-8.62,15.02-6.74,8.63-6.03,18.48-3.72,28.6,3.42-.56,6.24-1.02,6.83-4.78,.09-.59,1.12-1.38,1.81-1.49,4.9-.78,5.64-4.43,4.27-8.89-.33-1.09-.82-2.13-1.25-3.23,1.36-.25,2.57-.47,4.11-.76-.7-1.14-1.22-2-2.01-3.29,2.54-1.02,5.03-2.01,7.81-3.13-1.67-.96-3.14-1.8-4.76-2.72,2.06-1.05,3.93-2.01,6.17-3.15-1.64-.73-2.98-1.32-4.62-2.05l6.22-3.56c-2.18-.46-3.87-.81-6.14-1.28,1.67-1.22,2.98-2.19,4.67-3.43l-4.1-.31c3.49-4.82,6.56-9.21,12.89-10.31,8.57-1.49,16.99-3.79,25.5-5.64,1.91-.41,3.92-.39,6.71-.65-6.41,9.74-16.72,13.36-24.66,20.65,3.9-1.04,7.29-1.94,11.39-3.03-1.64,2.38-2.86,4.35-4.27,6.17-3.24,4.19-5.22,8.66-4.87,14.2,.1,1.64-1.61,3.5-2.72,5.09-.66,.95-1.78,1.58-2.7,2.35,.09,.35,.19,.7,.28,1.05,5.17-.5,10.34-1,15.51-1.49l.73,.73c-.95,1.86-1.61,3.97-2.91,5.55-8.65,10.65-19.48,17.6-33.41,19.01-4.25,.43-8.56,.45-12.73,1.27-3.23,.63-6.36,2.02-9.38,3.4-2.44,1.11-4.54,3.01-7.01,4.03-2.89,1.2-5.3-.42-5.02-3.5,.28-3.05,1.42-6.02,2.27-9.35,1.34,.7,1.93,.99,2.51,1.32,3.67,2.08,5.54,1.4,6.13-2.68,.69-4.79,1.04-9.63,1.37-14.46,.14-2.11-.45-4.22-2.68-5.03-2.45-.89-4.22,.63-5.33,2.52-1.41,2.41-2.46,5.03-3.58,7.59-.69,1.58-1.21,3.23-1.8,4.85l-1.02-.16c.93-6.47,1.25-13.12,3.04-19.34,.88-3.06,4.16-5.77,6.93-7.88,4.98-3.79,9.05-8.11,11.57-13.9,5.39-12.36,14.5-21.02,26.53-27.01,15.61-7.77,31.78-13.74,49.05-16.5,.57-.09,1.16-.15,1.74-.18,6.97-.37,9.27,2.2,8.5,9.24-1.43,13.11-6.63,25-11.85,36.87-7.47,16.99-16.83,32.79-30.17,45.9-7.61,7.48-16.14,13.66-26.84,16.03-2.63,.58-5.34,.79-8.26,1.2,1.66,1.14,3.27,2.23,4.87,3.33l-.13,.5c-1.93-.14-3.85-.29-6.68-.5,7.8,6.38,15.53,11.75,20.31,20.02-3.35-1.05-6.66-2.08-9.98-3.12l-.41,.84c8.12,4.47,14.29,10.84,19.21,19.52-6.91-4.21-13.33-7.84-20.9-8.65,9.39,5.53,18.81,10.99,25.24,20.12,2.33,3.31,4.25,6.89,6.59,10.72-4.2-1.03-7.84-1.92-11.48-2.82-.16,.28-.31,.56-.47,.84,9.12,5,12.39,14.93,18.91,22.31-1.85-1.04-3.7-2.08-5.55-3.12l-.56,.88c3.98,2.59,7.97,5.19,11.68,7.6-5.28-.49-10.91-1-16.55-1.52l-.2,1.1c2.9,1.03,5.75,2.23,8.7,3.07,7.86,2.23,13.96,6.42,17.33,14.19,1.03,2.37,2.92,4.35,4.14,6.65,1.39,2.62,2.94,5.3,3.61,8.14,1.9,8.06,5.95,14.66,12.21,19.98,.51,.44,.97,.94,1.23,1.85-2.08-1.05-4.16-2.1-6.24-3.15l-.19,.36c5.9,7.22,11.8,14.45,17.94,21.97-6.68-.97-12.66-1.83-18.65-2.7l-.3,1.01c1.03,.59,2.05,1.19,3.09,1.75,4.67,2.52,8.1,6.03,10.19,11.09,4.18,10.12,10.45,18.77,19.13,25.59,.3,.23,.53,.55,1.18,1.23-4.11-1.32-7.73-2.49-11.34-3.65,6.13,4.59,10.37,10.46,13.79,17.64l-10.62-1.89c4.45,2.22,6.94,6.01,7.99,10.39,2.15,8.96,7.61,15.76,13.37,22.48,2.26,2.64,4.38,5.4,6.28,8.58l-8.99-3.13c7.81,7.53,14.92,15.41,20.22,25.26-3.5-1.28-6.68-2.45-9.86-3.62,4.06,3.98,7.81,7.94,9.73,13.45-1.48-1.21-2.96-2.42-4.65-3.8,2.68,8.68,5.27,17.05,7.87,25.47l-10.88-6.42-.5,.68c5.13,4.77,10.19,9.58,12.95,16.19,.36,.86,.54,1.78,.96,3.23-2.61-1.92-4.73-3.48-6.86-5.04l-.44,.36c1.07,2.08,2.46,4.05,3.13,6.25,1.47,4.79,2.89,9.64,3.72,14.57,.78,4.57,2.49,8.47,5.45,11.97,3.77,4.47,6.71,9.4,7.89,15.56-7.08,0-13.96,.05-20.83-.09-.62-.01-1.51-1.2-1.78-2-7.65-23.23-14.87-46.62-22.9-69.72-20.1-57.82-44.16-113.98-71.61-168.71-17.87-35.63-37.45-70.23-59.38-103.52-1.03-1.56-2-2.41-4.1-2.5-8.48-.36-12.96-4.77-14.96-14.2-.2-.93-.43-1.85-.57-2.45Z"/><path d="M426.31,495.36c-3.88-11.64-7.63-22.91-11.39-34.17-9.98-29.9-20.84-59.48-32.99-88.57-1.32-3.16-1.66-6.71-2.62-10.04-.24-.85-.98-1.71-1.73-2.22-5.28-3.61-10.62-7.12-15.93-10.67-.53-.35-.99-.81-1.25-1.02,6.26-.54,12.63-.69,18.86-1.71,10.77-1.76,18.21-8.61,24.08-17.32,9.53-14.15,12.65-29.98,11.74-46.76-.23-4.15-.84-8.28-1.19-12.43-.06-.72,.13-1.57,.49-2.19,2.72-4.68,5.51-9.31,8.95-13.97,.83,5.13,1.97,10.23,2.43,15.39,1.94,21.48-.45,42.39-9.26,62.26-4.55,10.27-10.45,19.73-18.95,27.25-6.3,5.58-7,5.58-17.06,3.29,1.19,2.66,2.19,5.25,3.47,7.68,2.52,4.76,5.79,6.21,11.06,5.38,4.2-.66,8.44-1.11,12.65-1.74,3.01-.44,4.61,.8,5.94,3.57,3.98,8.29,8.11,16.53,12.59,24.56,3.24,5.82,7.13,11.27,10.82,17.03-6.77,8.8-20.56,13.2-31.21,9.75,1.65,3.72,2.9,7.68,5.04,11.09,2.71,4.32,7.23,5.18,12.08,4.47,6.97-1.02,13.51-3.33,19.71-6.64,.67-.36,1.37-.66,2.3-1.1,.8,2.31,1.53,4.49,2.31,6.64,4.63,12.72,9.41,25.38,13.82,38.17,1.37,3.98,1.81,8.3,2.49,12.5,.1,.63-.7,1.95-1.27,2.07-6.51,1.37-13.02,2.99-19.61,3.6-2.56,.24-5.37-1.83-8.01-2.99-2.65-1.17-5.16-2.89-8.35-1.17Z"/><path d="M496.29,421.92c7.48,8.72,14.84,16.53,17.08,27.49,1.07,5.22,3.99,8.58,8.89,10.95,12.1,5.85,15.32,17.7,7.73,28.98-4.21,6.25-9.2,11.99-14.02,17.81-8.34,10.08-16.81,20.05-25.3,30.14-.36-.25-.65-.35-.76-.55-5.94-10.42-12.14-20.7-17.73-31.31-5.11-9.72-4.55-19.4,2.12-28.43,.58-.78,1.05-1.64,1.68-2.37,6.37-7.46,9.88-16.06,11.92-25.7,1.91-9,5.41-17.67,8.38-27.02Z"/><path d="M445.05,283.55c2.9,4.17,6.17,8.14,8.65,12.56,9.59,17.11,13.54,35.47,11.85,55.08-1.12,12.94-7.11,23.81-14.09,34.25-2.29,3.42-5.24,6.44-8.16,9.37-1.19,1.19-3.11,1.64-5.1,2.63v-17.81l-.93-.18c-1.28,5.79-2.56,11.58-4.04,18.26-1.89-3.44-4.07-6.04-4.79-9-1.61-6.59-4.31-12.64-7.81-18.32-3.01-4.89-2.8-8.59,.78-13.59,10.35-14.42,16.08-31.01,19.58-48.29,1.63-8.03,2.32-16.25,3.44-24.39l.62-.58Z"/><path d="M538.2,505.36c1.72,8,5.53,15.03,9.8,21.88,4.25,6.82,6.03,14.42,6.66,22.33,.47,5.87,.82,11.76,1.25,18.07-1.44,0-2.57,0-3.7,0-15.05,0-30.1-.04-45.16,.04-1.85,.01-2.74-.6-3.48-2.24-3.73-8.27-3.74-8.22,2.46-14.83,7.05-7.52,13.28-15.52,17.98-24.87,3.66-7.28,8.8-13.82,13.29-20.68l.89,.31Z"/><path d="M480.18,311.3c1.9,3.24,3.94,6.41,5.66,9.74,6.48,12.56,12.75,25.22,19.29,37.73,3.67,7.01,3.71,14.23,2.39,21.75-1.92,10.93-3.65,21.9-5.57,33.52-1.31-1.46-2.44-2.47-3.26-3.68-8.08-11.99-14.57-24.84-20.38-38.05-.34-.77-.49-1.68-.5-2.53-.22-15.04-.57-30.07-.5-45.11,.02-4.48,1.24-8.94,1.92-13.42l.95,.03Z"/><path d="M484.1,567.58h-39.42c-4.97-21.24-9.89-42.28-14.88-63.61,1.92,2.2,4.1,4.12,5.57,6.49,3.49,5.6,8.75,7.29,14.84,7.48,3.2,.1,6.41-.04,9.61,.16,.94,.06,2.33,.69,2.68,1.45,7.29,15.71,14.46,31.48,21.64,47.24,.07,.15-.01,.37-.04,.8Z"/><path d="M469.47,462.37c-4.16-4.63-6.08-10.14-8.16-15.54-4.13-10.73-8.6-21.38-10.39-32.83-.24-1.54,.25-3.41,.96-4.85,1.07-2.15,2.67-4.03,3.99-6.07,4.26-6.57,8.3-13.25,9.04-21.38l.8-.21c4.55,5.89,9.12,11.75,13.63,17.67,1.76,2.31,3.34,4.76,5.04,7.13,2.93,4.07,3.82,8.62,2.07,13.24-5.28,14.02-10.81,27.95-16.26,41.92-.1,.25-.33,.44-.71,.92Z"/><path d="M339.3,231.72c6.01-3.46,11.63-6.58,17.12-9.91,2.97-1.81,5.75-3.95,8.57-6.01,4.47-3.27,9.4-4.74,14.97-4.52,5.81,.24,11.63,.21,17.44,.09,2.05-.04,4.09-.68,6.33-.49l-6.41,2.5c6.21,2.59,12.04,3.93,18.03,.04-2.05,4.48-5.4,7.41-10.18,8.4-2.03,.42-3.23,1.07-3.51,3.31-.23,1.8-.91,3.55-1.49,5.29-4.48,13.35-19.3,19.22-31.74,12.35-4.21-2.33-8.19-5.2-11.93-8.25-3.43-2.81-7.04-3.78-11.32-3.13-1.8,.27-3.65,.2-5.88,.3Zm55-9.64l-.06-1.13c-4.33-.29-8.65-.79-12.97-.7-1.06,.02-2.08,1.99-3.12,3.06,1.12,.89,2.15,2.36,3.39,2.56,4.84,.79,8.8-1.61,12.76-3.8Zm4.24,.06c-.38,1.17-.76,2.34-1.14,3.51-1.89,5.75-5.16,10.38-10.72,13.11-7.8,3.83-14.85,1.72-21.52-2.86-2.41-1.66-4.69-3.52-7.03-5.29,6.22,8.54,17.63,12.95,26.08,10.36,7.6-2.32,14.35-10.92,14.32-18.84Z"/><path d="M517.16,383.36c6.3,14.32,12.5,28.39,18.65,42.48,.32,.74,.47,1.77,.22,2.5-2.32,6.74-4.75,13.45-7.33,20.68-5.37-6.98-10.74-13.43-15.49-20.32-3.44-4.98-3.02-10.95-2.03-16.64,1.62-9.33,3.58-18.6,5.4-27.9,.03-.17,.22-.31,.58-.8Z"/><path d="M558.45,524.19c-9.82-12.97-12.86-27.98-14.81-43.39-.73-5.76-1.45-11.56-2.8-17.19-1.08-4.48,.26-7.56,3.8-10.34,2.4,6.16,4.73,12.28,7.16,18.35,4.11,10.24,8.17,20.49,12.48,30.64,1.84,4.34,2.44,8.74,2.1,13.33-.06,.87-.51,1.9-1.12,2.5-2.22,2.15-4.59,4.14-6.8,6.1Z"/><path d="M324.89,327.78c-1.67-6.59-4.98-12.16-9.54-17.04-.43-.46-.46-1.94-.05-2.41,1.51-1.72,3.07-3.55,4.98-4.74,6.04-3.79,12.28-6.25,19.65-3.27,3.41,1.37,7.27,1.61,11.44,2.46-5.21,6.23-10.76,11.76-10.28,19.84-5.35,1.7-10.55,3.36-16.2,5.16Z"/><path d="M402.41,274.13c.68,4.11,1.53,7.69,1.82,11.3,.52,6.37,1.26,12.81,.77,19.14-.24,3.12-2.99,6.06-4.72,9.01-.17,.28-1.24,.15-1.85,.02-1.78-.38-3.53-.85-5.89-1.43,1.63,5.35-1.22,7.92-5.13,10.51-2.23,1.48-3.29,4.67-5.05,6.97-.7,.91-1.85,1.48-2.79,2.21-.42-.32-.85-.64-1.27-.96,1.79-4.83,2.98-10.01,5.52-14.41,4.07-7.07,5.59-14.74,7.11-22.5,.48-2.46,1.31-4.93,1.32-7.4,.04-6.61,5.28-8.84,10.17-12.46Z"/><path d="M355.74,290.86c.59-.22,2.05-.52,3.23-1.26,2.31-1.47,4.57-3.06,6.65-4.84,3.88-3.32,7.42-7.06,11.46-10.16,3.4-2.61,7.31-4.57,11-6.82,2.39,7.6-.66,13.94-3.52,20.24-.51,1.13-2.14,1.81-3.33,2.56-2.7,1.69-5.6,3.09-8.12,5-1.57,1.18-3.2,2.89-3.74,4.69-1.19,3.94-3.96,5.32-7.51,6.03-1.04,.21-2.05,.54-3.26,.87-.94-5.37-1.87-10.67-2.86-16.31Z"/><path d="M471.42,318.06c-6.8-14.43-13.67-28.83-20.33-43.32-.8-1.74-.55-3.98-.69-5.99-.28-3.94-.51-7.89-.18-12.04,1.42,2.34,2.84,4.68,4.25,7.03,5.73,9.55,11.47,19.1,17.16,28.68,.48,.8,.94,1.76,.95,2.66,.08,7.64,.04,15.27,.04,22.91-.4,.03-.8,.05-1.2,.08Z"/><path d="M584.33,567.51h-21.93c-.42-6.85-.87-13.65-1.23-20.46-.03-.6,.4-1.27,.74-1.84,2.32-3.9,4.68-7.77,7.33-12.16,5.09,11.61,10.01,22.86,15.09,34.46Z"/><path d="M320.06,275.7c6.63-1.93,13.06-3.86,19.51-5.67,6.38-1.79,12.78-3.46,19.62-5.3,.49,5.46,.9,10.12,1.33,15.03-4.15,1.28-8.12,2.99-12.26,3.58-2.08,.3-4.57-1.21-6.66-2.3-1.92-1-3.67-1.21-5.44-.12-4.15,2.57-7.79,1.97-11.24-1.38-1.49-1.44-3.27-2.59-4.88-3.84Z"/><path d="M389.86,167.15c-4.3-3.41-8.4-6.61-12.43-9.91-.61-.5-1.07-1.38-1.28-2.16-1.64-6.15-3.2-12.31-4.85-18.74,3.25,.27,6.39,.45,9.49,.86,.84,.11,1.81,.76,2.33,1.45,1.95,2.64,3.66,5.45,5.6,8.09,4.79,6.51,2.72,13.31,1.13,20.41Z"/><path d="M346.32,331.17c-.8,2.54-1.3,4.5-2.02,6.38-1.8,4.69-4.34,6.16-9.18,6.46-2.29,.14-4.74,.95-6.74,2.1-3.09,1.78-5.95,3.3-9.73,2.27-2.48-.68-5.14-.73-8.14-1.11,4.55-4.36,8.67-8.65,13.2-12.45,1.35-1.14,3.85-.98,5.84-1.27,5.42-.81,10.86-1.55,16.77-2.38Z"/><path d="M315.86,269.5c-.67,.58-1.33,1.32-2.15,1.81-3.6,2.16-4.53,5.56-4.32,9.4,.15,2.66-.9,4.19-3.36,5.33-4.09,1.9-8,4.21-12.83,6.81,0-4.65-.03-8.73,.04-12.8,0-.49,.39-1.11,.78-1.45,5.56-4.8,11.15-9.56,17.04-14.59,1.48,1.69,2.98,3.4,4.81,5.49Z"/><path d="M429.71,232.78c3.58,3.98,4.43,8.54,4.91,13.45,.85,8.55,2.13,17.06,3.46,25.56,.45,2.87-.54,4.41-3.12,5.24-7.69-13.51-8.61-33.41-5.26-44.24Z"/><path d="M374.86,310.8c-1.22,5.38-2.26,10.17-3.43,14.92-.19,.77-.78,1.64-1.44,2.05-4.83,2.97-9.73,5.84-15.22,9.11,0-4.62-.05-8.72,.05-12.81,.01-.6,.61-1.39,1.16-1.74,6.06-3.76,12.17-7.45,18.88-11.53Z"/><path d="M290.76,246.51c4.84,.9,9,3.89,15.18,10.83-5.25,4.29-10.5,8.58-15.74,12.86l-.78-.22c.45-7.82,.89-15.63,1.34-23.48Z"/><path d="M409.38,242.93c1.32,1.93,2.6,3.74,3.8,5.6,1.66,2.58,1.56,5.74-1.11,7.13-5.21,2.71-8.13,7.65-12.29,11.34-1.2,1.07-2.35,2.19-3.52,3.28l-.66-.4c1.84-5.04,3.58-10.11,5.55-15.11,1.93-4.92,4.09-9.75,6.7-14.75,.3,1.45,.59,2.89,.91,4.41,.19-.44,.38-.9,.64-1.5Z"/><path d="M320.12,291.31c-2.75,4.15-5.38,8.18-8.12,12.14-.35,.5-1.49,1.07-1.84,.87-4.62-2.71-9.38-2.15-14.25-.46l-.41-.82c3.33-3.57,6.46-7.37,10.11-10.58,1.29-1.13,3.85-.98,5.85-1.11,2.7-.17,5.41-.04,8.66-.04Z"/><path d="M373.19,259.18c9.42,.38,16.12-4.21,21.12-11.65,2.75-4.08,5.2-8.37,7.84-12.52,.46-.72,1.24-1.24,1.87-1.85,.31,.83,.97,1.7,.87,2.48-1.33,10.53-9.23,23.67-23.2,25.04-2.79,.27-5.68-.43-8.52-.69l.02-.83Z"/><path d="M407.69,191.73c-5.26-5.2-10.51-10.4-15.96-15.8,1.16-.91,1.88-1.49,2.61-2.06,3.25-2.58,6.33-2.83,9.58-.42,.85,.63,1.27,2.07,1.52,3.21,1.06,4.79,1.97,9.62,2.94,14.43l-.7,.63Z"/><path d="M417.44,352.06c9.19-20.27,17.54-40.78,17.35-63.65,2.4,23.44-5.66,44.03-17.35,63.65Z"/><path d="M369.02,247.04c6.41,3.04,12.5,3.64,19,2.1-3.6,5.53-14.11,4.61-19-2.1Z"/><path d="M239.28,334.77c.61-6.13,2.47-11.11,6.9-14.42,3.17-2.37,6.94-4.13,10.68-5.51,3.56-1.31,6.02,1.1,5.68,4.95-.35,4.03-2.51,7.06-6.07,8.59-5.45,2.34-11.12,4.17-17.18,6.39Z"/></svg>