<?xml version="1.0" encoding="UTF-8"?><svg id="a" xmlns="http://www.w3.org/2000/svg" viewBox="0 0 800 600.7"><path d="M404.57,308.35c-3.04,5.71-6.27,11.34-9.07,17.16-1.82,3.78-1.28,7.85,.4,11.61,1.73,3.89,3.4,7.89,5.75,11.41,7.65,11.44,8,23.51,4.09,36.22-3,9.77-5.75,19.61-8.54,29.44-.49,1.72-.49,3.58-.94,5.32-1.12,4.27-1.73,8.85-3.71,12.7-4.65,9.03-7.15,18.62-8.13,28.55-1.57,15.87-2.68,31.8-3.69,47.72-.3,4.8-.04,9.73,.8,14.46,.53,3.01,2.23,6.02,4.08,8.53,2.82,3.81,6.23,7.17,7.48,11.96,.88,3.38-.33,5.78-3.73,5.78-6.44,0-12.88-.51-19.3-1.01-2.41-.19-3.97-1.94-3.42-4.34,.68-2.96,1.63-6,3.14-8.61,2-3.48,2.3-4.84-.9-7.21-7.7-5.7-7.01-8.17-3.34-15.59,5.33-10.77,7.9-22.34,8.97-34.16,1.19-13.04,1.75-26.14,2.37-39.23,.16-3.28-.47-6.59-.79-9.89-.5-5.18,1.76-9.53,3.83-14.03,1.92-4.18,3.88-8.46,4.92-12.91,2.7-11.49,2.19-23.22,1.45-34.89-.41-6.34-1.29-12.64-2.02-19.52-14.59,9.03-29.77,11.39-45.99,5.78-3.25,11.34-10.06,20.18-18.55,27.91-8.87,8.07-12.81,18.63-14.68,30.09-2.46,15.04-3.89,30.22-2.8,45.42,.59,8.16,2.59,16.26,4.48,24.27,2.78,11.79,6,23.48,9.09,35.2,1.67,6.3,5.33,11.16,10.6,15.05,3.41,2.52,6.6,5.43,9.45,8.56,1.44,1.58,2.21,3.96,2.73,6.11,.7,2.9-.7,4.76-3.64,5.33-6.37,1.22-12.68,.79-18.85-1.12-3.38-1.05-4.29-2.94-3.37-6.35,.22-.82,.5-1.63,.82-2.42,1.61-4.02,1.2-5.1-2.77-7.04-1.11-.54-2.25-1.01-3.34-1.58-3.25-1.68-5.06-4.35-4.82-8.04,1.82-27.19-6.76-52.14-16.51-76.84-.83-2.11-2-4.09-3.04-6.11-.3-.58-.7-1.11-1.49-2.34-.68,2.76-1.39,4.93-1.72,7.14-2.82,19.42-3.72,38.96-3.09,58.56,.13,4.16,.79,8.31,1.18,12.46,.61,6.49,4.02,11.4,8.33,16.08,2.75,2.99,5.13,6.6,6.7,10.35,1.95,4.64,.09,7.38-4.97,7.83-5.85,.52-11.75,.63-17.62,.56-4.26-.05-6.05-2.97-4.43-7.4,1.02-2.79,2.79-5.34,4.45-7.84,1.69-2.54,1.74-3.82-.45-5.95-.68-.66-1.39-1.32-2.19-1.81-4.83-2.98-6.11-7.38-4.75-12.56,5.87-22.38,6.75-45.2,5.85-68.13-.34-8.6-1.59-17.18-2.6-25.75-.43-3.69,1.1-6.37,3.44-8.93,6.35-6.92,10.38-15.12,12.96-24.09,3.62-12.59,2.36-24.69-3.16-36.56-3.3-7.1-6.13-14.44-8.89-21.78-.88-2.34-.85-5.02-1.36-8.37-1.42,2.42-2.7,4.31-3.68,6.34-3.55,7.34-5.25,15.24-6.1,23.25-1.43,13.5-2.43,27.04-3.61,40.57-.25,2.9,.33,5.43,2.03,8.01,3.39,5.14,2.99,11.14,2.37,16.88-2.02,18.59-5.61,36.92-10.07,55.07-.13,.53-.35,1.04-1.27,1.64-.52-2.82-1.24-5.63-1.52-8.47-1.53-15.3-3.1-30.6-4.31-45.92-.34-4.29-.02-8.8,.97-12.97,.7-2.96,3.06-5.52,4.64-8.29,1.09-1.91,2.75-3.75,3.06-5.79,2.11-13.58,3.85-27.21,5.87-40.8,1.78-11.98,3.42-24.02,9.11-34.99,4.07-7.84,9.83-14.13,17-19.24,1.68-1.19,3.44-2.62,4.44-4.35,8.12-14.14,20.79-21.87,35.97-26.46,13.39-4.04,26.24-9.34,37.7-17.62,3.91-2.83,6.83-6.27,8.16-10.94,2.9-10.24,9.36-17.28,18.89-21.89,14.9-7.22,28.41-16.44,39.82-28.57,10.85-11.53,19.77-24.53,28.78-37.47,10.8-15.51,21.52-31.09,34.26-45.11,6.51-7.17,13.3-14.09,20.01-21.18-7.23-2.31-8.46-8.78-10.39-15.22,5.48-.92,9.71,.87,13.59,3.85,1.05,.81,1.94,1.84,3.04,2.58,.52,.35,1.41,.46,1.99,.26,.3-.1,.56-1.22,.38-1.7-1.65-4.36-2.58-9.18-8.36-10.44-2.81-.61-3.69-3.27-2.83-6.5,.71-2.68,3.14-4.3,6.06-4.03,2.81,.26,5,2.4,4.79,5.35-.41,5.71,3.35,8.98,6.77,12.51,.19,.19,.48,.3,.74,.39,.17,.05,.37-.01,.55-.02,1.79-3.86,.41-8.89-2.99-10.93-2.8-1.69-3.69-4.58-2.21-7.16,1.47-2.56,4.67-3.58,7.1-2.26,2.85,1.55,4.25,5.23,2.57,7.74-.98,1.47-.75,2.44-.17,3.82,.94,2.27,1.65,4.63,2.47,6.95,1.54,4.37,4.6,7.05,9.04,8.27,1.63,.45,3.31,.93,4.77,1.74,2.49,1.37,3.01,3.65,2.19,6.26-.35,1.12-.24,2.62,.21,3.73,2.47,6.17,6.39,11.24,12.25,14.51,2.9,1.62,4.42,3.89,5.26,7,.71,2.63,1.99,5.1,2.82,7.71,1.52,4.75-1.14,7.99-5.99,6.68-3.35-.9-7.03-2.45-9.36-4.86-4.69-4.85-9.64-5.98-15.96-4.27-4.4,1.2-9.08,1.36-13.46-.35-1.72-.67-3.75-1.85-4.53-3.36-2.11-4.09-3.63-8.48-5.39-12.76-.35-.86-.71-1.71-1.59-2.53v6.19h-10.37c-.1,.36-.2,.71-.3,1.07,2.62,.96,5.2,2.08,7.88,2.85,3.24,.93,3.45,1.53,1.47,4.3-4,5.59-9.47,7.91-16.52,7.68v-8.63l-.9-.36c-1.96,7.19-5.72,13.2-11.84,18.04,4.03,2.69,5.45,6.09,5.4,10.25-.06,4.62-1.95,6.74-6.57,7.04-1.71,.11-3.42,.32-5.12,.22-1.68-.1-3.34-.54-5.23-.87-1.11,1.84-2.26,3.75-3.42,5.67,3.76,2.05,3.96,2.05,15.35,.08,1.19,3.99,2.38,8.01,3.58,12.03l.45-.11c.66-4.14,1.31-8.29,1.99-12.42,.19-1.12,.41-2.24,.75-3.32,1.44-4.5,1.8-4.66,6.43-4.2,1.79,.18,3.6,.03,5.52,.03-2.94,8.78-5.83,17.4-8.74,26.09-.23,.03-.59,.2-.76,.08-3.29-2.1-6.37-1.36-9.87-.1-8.72,3.15-15.8,.88-22.33-6.67-1.6,2.38-3.14,4.69-5.15,7.68,5.43,1.57,10.52,3.04,15.83,4.57-1.05,1.54-2.24,3.01-3.14,4.63-2.08,3.71-3.97,7.52-6.05,11.22-.44,.79-1.32,1.72-2.11,1.85-3.83,.62-7.71,.97-11.56,1.44-3.74,.46-7.04-.1-8.98-4.33-1.63,2.15-2.95,3.91-4.32,5.72,.39,.42,.61,.72,.89,.95,4.53,3.78,3.54,9.2-2.16,11.18-6.82,2.37-13.6,4.76-19.48,9.12-.82,.61-1.59,1.27-2.15,2.6,8.68-1.57,17.37-3.15,25.74-4.66,2.72,3.31,5.67,6.81,8.47,10.42,.38,.49,.28,1.68-.04,2.34-1.48,3.07-2.7,6.39-4.81,8.97-1.61,1.98-4.25,3.4-6.71,4.34-4.91,1.88-10.01,3.26-15.03,5.53,3.19,.85,6.35,1.79,9.57,2.52,2.36,.54,3.21,1.8,3.19,4.21-.04,5.25,.61,10.43,3.13,15.16,.65,1.22,1.53,2.31,2.31,3.46l.75-.12c.71-4.21,1.51-8.42,2.11-12.65,.7-4.94-4.06-7.44-5.44-11.4,2.94-2.15,6.14-3.86,8.48-6.37,2.8-3,5.06-6.56,7.15-10.12,.8-1.37,1.46-2.13,2.97-2.5,1.8-.44,3.51-1.24,4.89-1.74,2.13,3.72,4.31,7.33,6.25,11.05,.33,.63-.09,1.96-.59,2.65-5.6,7.78-11.36,15.44-16.89,23.27-2.4,3.4-4.33,7.12-6.51,10.67-.86,1.4-.68,2.43,.38,3.8,5.27,6.79,9.75,14.01,11.2,22.72,1.31,7.9,.18,15.15-5.68,21.09-3.53,3.57-5.22,7.66-4.89,12.8,.86,13.57-3.25,26.2-7.64,38.78-3.03,8.68-6.15,17.44-5.35,26.84,.41,4.89,1.88,9.69,2.27,14.58,.47,5.82,.34,11.68,.39,17.53,0,.7-.41,1.48-.83,2.08-3.62,5.23-4.61,11.28-4.67,17.34-.11,12.34,.04,24.69,.52,37.02,.44,11.11,2.37,22.03,5.55,32.72,2.27,7.65,6.37,13.86,12.82,18.64,2.09,1.54,3.96,3.59,5.38,5.77,1.88,2.89,1.01,4.77-2.31,5.81-1.61,.51-3.33,.88-5.01,.93-4.85,.13-9.71,.26-14.54,.03-6.41-.31-8.56-4.58-5.39-10.23,.05-.08,.09-.17,.14-.25,2.44-4.2,2.25-4.96-1.93-7.67-.24-.15-.46-.33-.71-.48-7.7-4.72-7.82-5.66-6.07-14.56,1.42-7.22,2.66-14.58,2.9-21.91,.59-18.26-.41-36.47-4.57-54.36-1.57-6.73-4.2-13.3-3.36-20.37,.5-4.21,1.53-8.36,2.33-12.54,2.16-11.22,1.79-22.5,.8-33.79-.59-6.71-1.38-13.41-1.97-20.12-.3-3.35-1.54-6.16-3.84-8.63-1.74-1.87-3.36-3.89-4.75-6.02-3.22-4.94-4.79-10.12-2.46-16.06,1.58-4.03,2.7-8.26,3.81-12.46,.44-1.64,.29-3.44,.42-5.17l-.91-.28Zm-34.88-53.25c-1.41,5.47,.94,9.75,3.52,13.72-1.96,2.85-3.96,5.41-5.57,8.19-1.61,2.77-3.11,5.67-4.12,8.7-.66,1.96-1.51,2.57-3.4,2.33-1.12-.14-2.28,.03-3.42-.07-5.47-.46-10.95-.92-16.42-1.48-2.79-.29-3.82-1.84-3.15-4.67,.35-1.46,.22-3.04,.3-4.56l-.6-.54c-2.43,4.45-5.62,3.35-9.12,2.08-2.68-.97-5.61-1.26-8.43-1.85l-.2,.8c4.09,2.88,8.17,5.75,12.26,8.63-1.58,3.62-3.09,7.1-4.61,10.57l.65,.39c1.79-1.81,3.42-3.82,5.42-5.35,1.21-.92,3.03-1.58,4.51-1.47,3.86,.27,7.69,1.05,11.53,1.58,2.85,.4,5.71,.72,8.99,1.13-1.71,5.41-3.19,10.4-4.92,15.3-.51,1.44-1.46,3.25-2.7,3.82-4.02,1.85-8.25,3.25-12.43,4.72-1.31,.46-2.25,.07-3.32-1.23-3.05-3.67-6.47-7.03-9.75-10.51l-.92,.52c2.04,4.31,4.17,8.59,6.07,12.97,.58,1.34,.9,2.99,.74,4.43-.34,2.97-1.08,5.9-1.65,8.84l.66,.32c1.67-2.7,3.26-5.46,5.05-8.07,.69-1.01,1.71-2.15,2.8-2.49,4.42-1.38,8.92-2.55,13.42-3.66,3.63-.9,5.57,.47,5.94,4.18,.14,1.4,.28,3.01-.25,4.22-1.9,4.29-4.06,8.48-6.2,12.66-.77,1.49-1.79,2.86-2.69,4.28l.64,.41c5.26-4.26,9.93-9.05,12.9-15.26,.81-1.69,1.66-2.09,3.51-1.65,3.54,.85,6.91-.3,10.27-1.41-5.31-1.77-9.88-4.4-13.78-8.39-2.57-2.63-3.69-5.19-2.59-8.86,1.45-4.85,2.51-9.82,3.99-15.72,6.88,4.34,12.97,8.17,19.42,12.24-3.38-7.15-8.44-12.37-14.28-16.59,3.11-5.01,6.04-9.73,8.85-14.25,4.47,.32,9.2,.66,14.33,1.03,1.99,4.15,4.24,8.84,6.5,13.53l.9-.33c-.6-4.58-1.08-9.18-1.85-13.73-.49-2.93-.43-5.48,1.59-7.95,3.7-4.52,8.41-7.48,13.5-9.89,2.55,3.65,5,7.16,7.45,10.66,.72-8.22-9.08-36.25-13.58-39.42,.12,2.45-.21,4.61,.4,6.47,1.21,3.66,2.82,7.22,4.51,10.7,1.1,2.28,1.3,3.7-1.58,4.73-1.91,.68-3.82,1.88-5.23,3.33-4.16,4.27-8.06,8.8-12.1,13.19-.49,.53-1.22,1.16-1.85,1.17-4.4,.1-8.8,.05-13.21,.05-2.15-4.04-4.41-8.27-6.66-12.49Zm50.81,17.86l-.85,.11v13.25c-9.47,3.17-13.55,5.57-15.53,9.35,2.14-.77,4.06-1.51,6.02-2.14,2.07-.67,4.14-1.34,6.25-1.83,4.89-1.14,9.82,2.9,9.65,7.87-.16,4.84-.4,9.67-.6,14.5-.04,.94,0,1.87,0,2.81,4.57-5.69,5.34-12.33,5.84-18.84,3.46-.43,6.61-.81,10.21-1.26-4.24-1.75-7.97-3.07-11.5-4.8-3.72-1.82-6.26-4.67-7-9.03-.57-3.37-1.65-6.66-2.5-9.99Zm-113.8,10.13l-.8,.08c0,2.42-.6,5.02,.11,7.21,2.19,6.73,.6,12.85-2.13,18.92-.19,.43-.39,.87-.55,1.31-1.28,3.74-3.82,6.29-7.46,7.69-2.37,.91-4.81,1.64-7.23,2.45,4.94,4.37,11.78,3.75,14.68-2.03,2.94-5.86,5.5-12.09,7.01-18.45,1.41-5.96-.07-11.98-3.63-17.18Zm14.66,62.67c-7.74-3.85-9.54-10.04-7.95-17.93,.86-4.29,1.02-8.72,1.49-13.08-3.67,5.28-5.34,11.2-6.57,17.26-1.72,8.45,4.16,14.84,13.04,13.75Zm-39.93-6.53l.15,.63c1.77,0,3.65,.39,5.27-.09,2.3-.7,3.21,.23,4.15,2.04,2.35,4.52,5.67,8.14,10.68,10.86-1.86-7.94-5.92-13.61-12.39-17.46-2.7,1.38-5.28,2.7-7.86,4.02Zm142.91-7.46l.58-1.35c-4.06-2.51-8.11-5.06-12.23-7.47-.42-.25-1.5,.13-1.96,.55-2.98,2.72-5.87,5.53-8.98,8.49,3.77,.08,7.01-.86,9.53-3.35,1.39-1.37,2.4-1.24,3.97-.52,2.96,1.36,6.05,2.45,9.09,3.65Z"/><path d="M487.19,194.8c-4.02,.27-7.76,.53-11.51,.78-.09,0-.19,0-.28,.01-6.83,.35-7.97-1.36-5.05-7.37,1.84-3.81,3.49-7.71,5.32-11.52,.26-.53,1.03-.97,1.66-1.15,2.53-.75,5.09-1.39,7.3-1.99,2.19,2.05,4.27,3.93,6.26,5.9,.38,.37,.69,1.18,.56,1.65-1.4,4.7-2.89,9.36-4.25,13.68Z"/><path d="M451.88,224.43c-2.65-7.12-5.22-14-7.66-20.57,5.78-2.2,11.27-4.28,16.55-6.29-.22,6.16-.23,12.56-.76,18.92-.39,4.63-4.05,6.54-8.14,7.94Z"/><path d="M466.24,199.69c5.56,2.88,10.77,5.59,16.15,8.38-2.64,6.1-5,11.56-7.16,16.54-2.72-1.19-5.25-2.26-7.74-3.42-.5-.23-1.19-.82-1.2-1.24-.08-6.53-.05-13.06-.05-20.25Z"/><path d="M494.63,139.1c.87-4.28,1.62-8.34,2.59-12.35,.18-.74,1.16-1.6,1.94-1.83,3.15-.91,6.37-1.59,9.82-2.42l.62,1.33c2.31-3.95,4.62-7.89,7.1-12.11,2.26,1.69,4.12,3.08,6.24,4.67-7.66,3.59-11.22,10.36-14.53,17.29-.8,1.68-1.63,2.48-3.71,2.7-2.86,.3-5.63,1.52-8.44,2.33-.51,.15-1.03,.24-1.63,.37Z"/></svg>